<svg width="13" height="16" viewBox="0 0 13 16" fill="none" xmlns="http://www.w3.org/2000/svg">
<path d="M5.83698 0.636377L1.17832 2.38337C0.572696 2.6163 0.168945 3.19087 0.168945 3.84308L0.168945 7.50013C0.168945 11.4212 2.81661 15.0782 6.38049 15.9711C9.94436 15.0782 12.592 11.4212 12.592 7.50013V3.84308C12.5915 3.52712 12.4945 3.21884 12.3142 2.9594C12.1338 2.69997 11.8786 2.50172 11.5827 2.39114L6.92399 0.644141C6.5746 0.504382 6.18637 0.504382 5.83698 0.636377ZM5.00618 10.3963L3.36012 8.7502C3.28824 8.67831 3.23122 8.59297 3.19231 8.49905C3.15341 8.40513 3.13339 8.30447 3.13339 8.20281C3.13339 8.10115 3.15341 8.00048 3.19231 7.90656C3.23122 7.81264 3.28824 7.7273 3.36012 7.65542C3.43201 7.58353 3.51735 7.52651 3.61127 7.4876C3.70519 7.4487 3.80586 7.42868 3.90752 7.42868C4.00918 7.42868 4.10984 7.4487 4.20376 7.4876C4.29768 7.52651 4.38302 7.58353 4.45491 7.65542L5.54969 8.7502L8.2983 6.00159C8.37018 5.92971 8.45552 5.87269 8.54944 5.83378C8.64337 5.79488 8.74403 5.77486 8.84569 5.77486C8.94735 5.77486 9.04801 5.79488 9.14194 5.83378C9.23586 5.87269 9.3212 5.92971 9.39308 6.00159C9.46497 6.07348 9.52199 6.15882 9.56089 6.25274C9.5998 6.34666 9.61982 6.44732 9.61982 6.54898C9.61982 6.65064 9.5998 6.75131 9.56089 6.84523C9.52199 6.93915 9.46497 7.02449 9.39308 7.09638L6.10097 10.3885C5.80592 10.6991 5.30899 10.6991 5.00618 10.3963Z" fill="#8667DE"/>
</svg>
