<svg width="36" height="36" viewBox="0 0 36 36" fill="none" xmlns="http://www.w3.org/2000/svg">
<path d="M18 0C8.05875 0 0 8.05875 0 18C0 27.9412 8.05875 36 18 36C27.9412 36 36 27.9412 36 18C36 8.05875 27.9412 0 18 0ZM25.3219 14.745C25.3294 14.8987 25.3312 15.0525 25.3312 15.2025C25.3312 19.89 21.7669 25.2919 15.2456 25.2919C13.3187 25.2951 11.4318 24.7416 9.81187 23.6981C10.0875 23.7319 10.3706 23.745 10.6575 23.745C12.3187 23.745 13.8469 23.1806 15.06 22.2281C14.3207 22.2136 13.6044 21.9688 13.0108 21.5278C12.4173 21.0869 11.9761 20.4717 11.7487 19.7681C12.2797 19.8691 12.8266 19.8479 13.3481 19.7062C12.5457 19.544 11.8241 19.1092 11.3057 18.4756C10.7873 17.842 10.5039 17.0486 10.5037 16.23V16.1869C10.9819 16.4512 11.5294 16.6125 12.1106 16.6313C11.3584 16.1305 10.8258 15.3613 10.622 14.4809C10.4181 13.6005 10.5582 12.6755 11.0137 11.895C11.9043 12.99 13.0149 13.8858 14.2736 14.5243C15.5323 15.1629 16.911 15.53 18.3206 15.6019C18.1414 14.8412 18.2185 14.0426 18.54 13.3303C18.8615 12.618 19.4093 12.0319 20.0983 11.663C20.7872 11.2941 21.5788 11.1632 22.3498 11.2906C23.1208 11.418 23.8282 11.7966 24.3619 12.3675C25.1553 12.2105 25.9162 11.9195 26.6119 11.5069C26.3474 12.3284 25.7938 13.026 25.0537 13.47C25.7566 13.3853 26.4429 13.1964 27.09 12.9094C26.6147 13.6217 26.0159 14.2433 25.3219 14.745V14.745Z" fill="#9DAEC2"/>
</svg>
