<svg width="15" height="15" viewBox="0 0 15 15" fill="none" xmlns="http://www.w3.org/2000/svg">
<g clip-path="url(#clip0)">
<path d="M11.1731 5L3.65385 5.32692L3 6.63462L4.63462 9.57692L6.92308 10.5577L9.86538 9.57692L11.1731 5Z" fill="white"/>
<path d="M6.66127 0.095268L2.13464 1.79275C1.54618 2.01908 1.15387 2.57737 1.15387 3.2111L1.15387 6.7645C1.15387 10.5744 3.7265 14.1278 7.18937 14.9954C10.6522 14.1278 13.2249 10.5744 13.2249 6.7645V3.2111C13.2243 2.90408 13.1302 2.60454 12.9549 2.35246C12.7797 2.10038 12.5317 1.90775 12.2441 1.8003L7.71748 0.102812C7.37798 -0.0329865 7.00076 -0.0329864 6.66127 0.095268V0.095268ZM5.85402 9.57855L4.25461 7.97914C4.18476 7.9093 4.12936 7.82638 4.09156 7.73512C4.05375 7.64386 4.0343 7.54604 4.0343 7.44727C4.0343 7.34849 4.05375 7.25067 4.09156 7.15941C4.12936 7.06815 4.18476 6.98523 4.25461 6.91539C4.32446 6.84554 4.40738 6.79013 4.49864 6.75233C4.5899 6.71453 4.68771 6.69507 4.78649 6.69507C4.88527 6.69507 4.98308 6.71453 5.07434 6.75233C5.1656 6.79013 5.24852 6.84554 5.31837 6.91539L6.38212 7.97914L9.05283 5.30843C9.12268 5.23859 9.2056 5.18318 9.29686 5.14538C9.38812 5.10758 9.48593 5.08812 9.58471 5.08812C9.68349 5.08812 9.7813 5.10758 9.87256 5.14538C9.96382 5.18318 10.0467 5.23859 10.1166 5.30843C10.1864 5.37828 10.2418 5.4612 10.2796 5.55246C10.3174 5.64372 10.3369 5.74153 10.3369 5.84031C10.3369 5.93909 10.3174 6.0369 10.2796 6.12816C10.2418 6.21942 10.1864 6.30234 10.1166 6.37219L6.91778 9.57101C6.63109 9.87278 6.14825 9.87278 5.85402 9.57855V9.57855Z" fill="#F2B10F"/>
</g>
<defs>
<clipPath id="clip0">
<rect width="15" height="15" fill="white"/>
</clipPath>
</defs>
</svg>
