<svg width="20" height="20" viewBox="0 0 20 20" fill="none" xmlns="http://www.w3.org/2000/svg">
<path d="M11.603 9.8329L9.35699 8.7849C9.16099 8.6939 8.99999 8.7959 8.99999 9.0129V10.9869C8.99999 11.2039 9.16099 11.3059 9.35699 11.2149L11.602 10.1669C11.799 10.0749 11.799 9.9249 11.603 9.8329ZM9.99999 0.399902C4.69799 0.399902 0.399994 4.6979 0.399994 9.9999C0.399994 15.3019 4.69799 19.5999 9.99999 19.5999C15.302 19.5999 19.6 15.3019 19.6 9.9999C19.6 4.6979 15.302 0.399902 9.99999 0.399902ZM9.99999 13.8999C5.08599 13.8999 4.99999 13.4569 4.99999 9.9999C4.99999 6.5429 5.08599 6.0999 9.99999 6.0999C14.914 6.0999 15 6.5429 15 9.9999C15 13.4569 14.914 13.8999 9.99999 13.8999Z" fill="#9DAEC2"/>
</svg>
