<svg width="36" height="36" viewBox="0 0 36 36" fill="none" xmlns="http://www.w3.org/2000/svg">
<g clip-path="url(#clip0_260:1419)">
<path d="M18 0C13.2261 0 8.64773 1.89642 5.27208 5.27208C1.89642 8.64773 0 13.2261 0 18C0 22.7739 1.89642 27.3523 5.27208 30.7279C8.64773 34.1036 13.2261 36 18 36C22.7739 36 27.3523 34.1036 30.7279 30.7279C34.1036 27.3523 36 22.7739 36 18C36 13.2261 34.1036 8.64773 30.7279 5.27208C27.3523 1.89642 22.7739 0 18 0V0ZM25.515 7.116C26.547 7.116 27.39 7.9575 27.39 8.9895C27.3848 9.476 27.1907 9.94142 26.8487 10.2874C26.5067 10.6335 26.0435 10.833 25.5571 10.8439C25.0707 10.8548 24.5991 10.6762 24.242 10.3459C23.8848 10.0155 23.67 9.55927 23.643 9.0735L19.7475 8.253L18.5475 13.8735C21.2835 13.9785 23.7675 14.8215 25.5585 16.1055C26.0205 15.642 26.6535 15.369 27.369 15.369C28.821 15.369 30 16.548 30 18C30 19.074 29.3475 19.9995 28.485 20.421C28.5278 20.6788 28.5489 20.9397 28.548 21.201C28.548 25.242 23.853 28.506 18.042 28.506C12.231 28.506 7.536 25.242 7.536 21.201C7.536 20.9265 7.5585 20.652 7.6005 20.4C7.13614 20.1939 6.74165 19.8574 6.46497 19.4314C6.18829 19.0053 6.04135 18.508 6.042 18C6.042 16.548 7.221 15.369 8.673 15.369C9.3675 15.369 10.02 15.663 10.4835 16.104C12.294 14.7795 14.8005 13.959 17.5995 13.8735L18.927 7.6005C18.9587 7.47972 19.0334 7.37466 19.137 7.305C19.2447 7.24228 19.3713 7.21995 19.494 7.242L23.853 8.1675C24.0003 7.85153 24.2352 7.58448 24.5298 7.39809C24.8245 7.21169 25.1664 7.11379 25.515 7.116V7.116ZM13.875 18C12.8415 18 12 18.843 12 19.875C12 20.9055 12.8415 21.747 13.875 21.747C14.9055 21.747 15.747 20.9055 15.747 19.8735C15.747 18.8415 14.9055 18 13.8735 18H13.875ZM22.125 18C21.0945 18 20.253 18.8415 20.253 19.875C20.253 20.9055 21.0945 21.747 22.1265 21.747C23.1585 21.747 24 20.9055 24 19.8735C24 18.843 23.157 18 22.125 18V18ZM13.926 23.985C13.7964 23.9844 13.6718 24.0351 13.5795 24.126C13.4884 24.2186 13.4373 24.3433 13.4373 24.4733C13.4373 24.6032 13.4884 24.7279 13.5795 24.8205C14.8425 26.0835 17.3055 26.19 18.021 26.19C18.7365 26.19 21.1785 26.106 22.4625 24.8205C22.5502 24.7283 22.6026 24.6082 22.6106 24.4812C22.6185 24.3542 22.5815 24.2284 22.506 24.126C22.4133 24.0344 22.2883 23.983 22.158 23.983C22.0277 23.983 21.9027 24.0344 21.81 24.126C20.9895 24.9255 19.284 25.221 18.042 25.221C16.8 25.221 15.0735 24.927 14.274 24.126C14.2283 24.0805 14.174 24.0444 14.1142 24.02C14.0545 23.9955 13.9905 23.9831 13.926 23.9835V23.985Z" fill="#9DAEC2"/>
</g>
<defs>
<clipPath id="clip0_260:1419">
<rect width="36" height="36" fill="white"/>
</clipPath>
</defs>
</svg>
