<svg width="36" height="36" viewBox="0 0 36 36" fill="none" xmlns="http://www.w3.org/2000/svg">
<path d="M20.8854 17.6994L16.8426 15.813C16.4898 15.6492 16.2 15.8328 16.2 16.2234V19.7766C16.2 20.1672 16.4898 20.3508 16.8426 20.187L20.8836 18.3006C21.2382 18.135 21.2382 17.865 20.8854 17.6994ZM18 0.719971C8.4564 0.719971 0.720001 8.45637 0.720001 18C0.720001 27.5436 8.4564 35.28 18 35.28C27.5436 35.28 35.28 27.5436 35.28 18C35.28 8.45637 27.5436 0.719971 18 0.719971ZM18 25.02C9.1548 25.02 9 24.2226 9 18C9 11.7774 9.1548 10.98 18 10.98C26.8452 10.98 27 11.7774 27 18C27 24.2226 26.8452 25.02 18 25.02Z" fill="#9DAEC2"/>
</svg>
