<svg width="24" height="24" viewBox="0 0 24 24" fill="none" xmlns="http://www.w3.org/2000/svg">
<path d="M23.1839 15.9197L19.9988 5.30291C19.935 5.08889 19.8241 4.89187 19.6743 4.7263C19.5244 4.56073 19.3394 4.43081 19.1328 4.3461L19.0824 4.36147L19.1339 4.34347C18.0886 3.91725 17.0042 3.59363 15.8963 3.37719C15.7997 3.35798 15.7002 3.35799 15.6036 3.37722C15.507 3.39644 15.4152 3.4345 15.3333 3.48923C15.2514 3.54396 15.1811 3.61428 15.1264 3.69618C15.0716 3.77808 15.0336 3.86995 15.0144 3.96655C14.9952 4.06315 14.9952 4.16259 15.0144 4.25919C15.0337 4.35579 15.0717 4.44765 15.1264 4.52954C15.1812 4.61143 15.2515 4.68173 15.3334 4.73645C15.4153 4.79116 15.5072 4.8292 15.6038 4.84841C16.0241 4.93197 16.4361 5.03032 16.8398 5.14344C16.9978 5.2215 17.1232 5.35288 17.1938 5.51439C17.2644 5.6759 17.2757 5.85717 17.2257 6.0262C17.1757 6.19523 17.0676 6.34118 16.9205 6.43827C16.7734 6.53537 16.5967 6.57739 16.4216 6.55691C13.5545 5.82035 10.5484 5.81446 7.67841 6.53975C7.5001 6.58357 7.31191 6.5604 7.14954 6.47466C6.98718 6.38891 6.86194 6.24655 6.79758 6.07458C6.73322 5.90261 6.73423 5.713 6.80041 5.54173C6.86659 5.37045 6.99334 5.22943 7.1566 5.14541L7.15979 5.14653C7.56316 5.03353 7.97566 4.93503 8.39729 4.85103C8.5924 4.81225 8.76411 4.69754 8.87464 4.53215C8.98518 4.36676 9.02548 4.16424 8.9867 3.96913C8.94791 3.77402 8.8332 3.60231 8.66781 3.49178C8.50242 3.38124 8.2999 3.34093 8.10479 3.37972C6.99682 3.59619 5.91251 3.9198 4.86713 4.346C4.66052 4.43074 4.47549 4.56065 4.32562 4.72622C4.17576 4.89179 4.06487 5.0888 4.00107 5.30282L0.816102 15.9197C0.733833 16.1975 0.733289 16.4931 0.814535 16.7711C0.895781 17.0492 1.05538 17.298 1.27426 17.4878C1.3637 17.5656 1.45548 17.642 1.54848 17.7177C1.55073 17.7194 1.5526 17.7214 1.55476 17.7233C3.07632 18.9576 5.07066 19.9006 7.32216 20.4502C7.51468 20.4954 7.71725 20.4627 7.88578 20.3592C8.05431 20.2558 8.17517 20.09 8.22206 19.8979C8.26895 19.7058 8.23808 19.5029 8.13616 19.3335C8.03424 19.164 7.86953 19.0417 7.67785 18.993C6.66535 18.7496 5.68081 18.4019 4.74001 17.9555L4.7461 17.956C4.61409 17.8364 4.52896 17.6737 4.50598 17.4971C4.483 17.3204 4.52366 17.1414 4.62068 16.992C4.7177 16.8426 4.86474 16.7326 5.03545 16.6818C5.20617 16.631 5.38941 16.6426 5.55235 16.7145C7.3322 17.5074 9.56841 18.0001 12 18.0001C14.4316 18.0001 16.6694 17.5067 18.4493 16.7139C18.6122 16.6423 18.7954 16.6311 18.9659 16.6822C19.1364 16.7332 19.2831 16.8433 19.3799 16.9927C19.4767 17.1421 19.5172 17.3211 19.4941 17.4976C19.471 17.6741 19.3859 17.8366 19.2539 17.9561L19.26 17.9555C18.3192 18.4019 17.3347 18.7496 16.3222 18.993C16.2257 19.0157 16.1347 19.0572 16.0544 19.1152C15.9741 19.1731 15.9061 19.2465 15.8542 19.3309C15.8024 19.4153 15.7679 19.5092 15.7525 19.607C15.7372 19.7049 15.7414 19.8048 15.7648 19.9011C15.7883 19.9973 15.8307 20.0879 15.8894 20.1677C15.9481 20.2475 16.022 20.3149 16.1069 20.3659C16.1918 20.417 16.2859 20.4507 16.3839 20.4652C16.4819 20.4796 16.5818 20.4745 16.6779 20.4502C18.9294 19.9006 20.9237 18.9576 22.4453 17.7233C22.4475 17.7214 22.4495 17.7193 22.4517 17.7175C22.5447 17.6419 22.6364 17.5655 22.7259 17.4878C22.9447 17.298 23.1043 17.0492 23.1855 16.7711C23.2668 16.4931 23.2662 16.1975 23.1839 15.9197ZM9.00001 14.6251C8.7775 14.6251 8.56 14.5591 8.37499 14.4355C8.18999 14.3119 8.04579 14.1362 7.96064 13.9306C7.87549 13.7251 7.85322 13.4989 7.89662 13.2807C7.94003 13.0624 8.04718 12.862 8.20451 12.7046C8.36185 12.5473 8.5623 12.4402 8.78053 12.3967C8.99876 12.3533 9.22496 12.3756 9.43053 12.4608C9.63609 12.5459 9.8118 12.6901 9.93541 12.8751C10.059 13.0601 10.125 13.2776 10.125 13.5001C10.125 13.7985 10.0065 14.0846 9.7955 14.2956C9.58453 14.5066 9.29838 14.6251 9.00001 14.6251ZM15 14.6251C14.7775 14.6251 14.56 14.5591 14.375 14.4355C14.19 14.3119 14.0458 14.1362 13.9606 13.9306C13.8755 13.7251 13.8532 13.4989 13.8966 13.2807C13.94 13.0624 14.0472 12.862 14.2045 12.7046C14.3618 12.5473 14.5623 12.4402 14.7805 12.3967C14.9988 12.3533 15.225 12.3756 15.4305 12.4608C15.6361 12.5459 15.8118 12.6901 15.9354 12.8751C16.059 13.0601 16.125 13.2776 16.125 13.5001C16.125 13.7985 16.0065 14.0846 15.7955 14.2956C15.5845 14.5066 15.2984 14.6251 15 14.6251Z" fill="#9DAEC2"/>
</svg>
