<svg width="24" height="24" viewBox="0 0 24 24" fill="none" xmlns="http://www.w3.org/2000/svg">
<path d="M21.24 6.26889C20.548 6.57543 19.814 6.77655 19.0625 6.86553C19.8541 6.39187 20.4465 5.64652 20.7293 4.76841C19.9852 5.21014 19.1709 5.5212 18.3218 5.68809C17.9671 5.30971 17.5384 5.00822 17.0624 4.8023C16.5863 4.59637 16.0731 4.49041 15.5544 4.49097C13.4606 4.49097 11.7629 6.18825 11.7629 8.28249C11.7629 8.57937 11.7965 8.86905 11.8613 9.14673C8.71008 8.98857 5.91648 7.47897 4.0464 5.18481C3.70921 5.76346 3.53204 6.4214 3.53304 7.09113C3.53254 7.71537 3.68625 8.33007 3.98051 8.88061C4.27476 9.43115 4.70045 9.90048 5.21976 10.2469C4.61777 10.2278 4.02904 10.0652 3.50256 9.77265C3.50208 9.78849 3.50208 9.80409 3.50208 9.82041C3.50208 11.6569 4.80888 13.1893 6.54312 13.538C5.9847 13.6892 5.39921 13.7113 4.83096 13.6028C5.31336 15.1088 6.71352 16.2054 8.37264 16.2361C7.02958 17.2901 5.37108 17.8618 3.66384 17.8592C3.35784 17.8592 3.05616 17.8415 2.75928 17.8062C4.49288 18.9201 6.51051 19.5113 8.57112 19.5092C15.545 19.5092 19.3586 13.7322 19.3586 8.72241C19.3586 8.55825 19.3548 8.39433 19.3476 8.23137C20.0903 7.69518 20.7312 7.03057 21.24 6.26889Z" fill="#9DAEC2"/>
</svg>
