<svg width="80" height="80" viewBox="0 0 80 80" fill="none" xmlns="http://www.w3.org/2000/svg">
<circle cx="40" cy="40" r="40" fill="#FAFAFA"/>
<path d="M52.5324 40.8519C53.9818 40.6379 55.4619 40.8723 56.7741 41.5237C58.0864 42.1751 59.168 43.2123 59.8738 44.4961C60.5796 45.7799 60.8758 47.2489 60.7228 48.7059C60.5697 50.1629 59.9746 51.5382 59.0173 52.6473C58.0601 53.7564 56.7865 54.5461 55.3675 54.9105C53.9485 55.2749 52.452 55.1966 51.0788 54.686C49.7057 54.1754 48.5215 53.257 47.6853 52.0541C46.8491 50.8511 46.4009 49.4212 46.4007 47.9561C46.4017 46.2337 47.0213 44.5688 48.1468 43.2649C49.2722 41.9609 50.8286 41.1046 52.5324 40.8519Z" fill="#DF9F00"/>
<path d="M57.9469 29.2226V42.2553C57.184 41.6714 56.3117 41.2464 55.3818 41.0054C54.4518 40.7644 53.4829 40.7122 52.5324 40.8519L46.693 36.7157L38.7691 44.5044L38.7657 44.501L29.5266 39.9986L20.2388 45.3854V29.2226C20.2388 28.3316 20.5927 27.4771 21.2227 26.8471C21.8527 26.2171 22.7072 25.8632 23.5981 25.8632H54.5875C55.4785 25.8632 56.333 26.2171 56.963 26.8471C57.593 27.4771 57.9469 28.3316 57.9469 29.2226Z" fill="#F2B10F"/>
<path d="M46.693 36.7157L52.5324 40.8519C51.2395 41.0428 50.0232 41.5829 49.0146 42.414C48.006 43.2451 47.2434 44.3358 46.8089 45.5684C46.3744 46.801 46.2846 48.1288 46.549 49.4087C46.8135 50.6886 47.4223 51.872 48.3097 52.8314H30.2959L38.7691 44.5044L46.693 36.7157Z" fill="#FFCF58"/>
<path d="M37.0785 31.7438C37.6629 31.7439 38.2342 31.9173 38.7201 32.242C39.206 32.5668 39.5847 33.0284 39.8083 33.5684C40.0319 34.1083 40.0903 34.7025 39.9762 35.2757C39.8621 35.8489 39.5806 36.3754 39.1673 36.7886C38.7539 37.2018 38.2274 37.4831 37.6541 37.5971C37.0809 37.711 36.4868 37.6524 35.9468 37.4287C35.4069 37.205 34.9455 36.8261 34.6208 36.3401C34.2962 35.8542 34.123 35.2828 34.1231 34.6984C34.1231 34.3103 34.1995 33.926 34.348 33.5675C34.4966 33.209 34.7143 32.8832 34.9887 32.6089C35.2632 32.3345 35.589 32.1169 35.9475 31.9684C36.3061 31.82 36.6904 31.7437 37.0785 31.7438Z" fill="white"/>
<path d="M38.7691 44.5044L30.2959 52.8314H23.5981C22.7072 52.8314 21.8527 52.4775 21.2227 51.8475C20.5927 51.2175 20.2388 50.363 20.2388 49.4721V45.3854L29.5266 39.9986L38.7657 44.501L38.7691 44.5044Z" fill="#FFDF52"/>
<path d="M57.1289 47.3867H54.1895V44.4473C54.1895 44.2691 54.1187 44.0982 53.9927 43.9722C53.8667 43.8462 53.6958 43.7754 53.5176 43.7754C53.3394 43.7754 53.1685 43.8462 53.0425 43.9722C52.9165 44.0982 52.8457 44.2691 52.8457 44.4473V47.3867H49.9902C49.812 47.3867 49.6411 47.4575 49.5151 47.5835C49.3891 47.7095 49.3184 47.8804 49.3184 48.0586C49.3184 48.2368 49.3891 48.4077 49.5151 48.5337C49.6411 48.6597 49.812 48.7305 49.9902 48.7305H52.8457V51.5859C52.8457 51.7641 52.9165 51.935 53.0425 52.061C53.1685 52.187 53.3394 52.2578 53.5176 52.2578C53.6958 52.2578 53.8667 52.187 53.9927 52.061C54.1187 51.935 54.1895 51.7641 54.1895 51.5859V48.7305H57.1289C57.3071 48.7305 57.478 48.6597 57.604 48.5337C57.73 48.4077 57.8008 48.2368 57.8008 48.0586C57.8008 47.8804 57.73 47.7095 57.604 47.5835C57.478 47.4575 57.3071 47.3867 57.1289 47.3867Z" fill="#FEDB41"/>
</svg>
