<svg width="20" height="20" viewBox="0 0 20 20" fill="none" xmlns="http://www.w3.org/2000/svg">
<g clip-path="url(#clip0_259:1409)">
<path d="M14.0604 6.92812C13.9736 6.70338 13.8408 6.49931 13.6703 6.32905C13.4999 6.15879 13.2957 6.02612 13.0708 5.93958C12.7613 5.82492 12.4343 5.76432 12.1042 5.76042C11.5552 5.73542 11.3906 5.72917 10 5.72917C8.60938 5.72917 8.4448 5.73542 7.89584 5.76042C7.56538 5.7642 7.23804 5.8248 6.92813 5.93958C6.70339 6.02636 6.49932 6.15924 6.32906 6.32968C6.1588 6.50012 6.02612 6.70433 5.93959 6.92917C5.82493 7.23874 5.76432 7.56573 5.76042 7.89583C5.73542 8.44479 5.72917 8.60938 5.72917 10C5.72917 11.3906 5.73542 11.5552 5.76042 12.1042C5.7642 12.4346 5.82481 12.762 5.93959 13.0719C6.02636 13.2966 6.15925 13.5007 6.32969 13.6709C6.50013 13.8412 6.70434 13.9739 6.92917 14.0604C7.23875 14.1751 7.56573 14.2357 7.89584 14.2396C8.4448 14.2646 8.60938 14.2698 10 14.2698C11.3906 14.2698 11.5552 14.2646 12.1042 14.2385C12.4346 14.2351 12.7619 14.1748 13.0719 14.0604C13.2966 13.9736 13.5007 13.8408 13.671 13.6703C13.8412 13.4999 13.9739 13.2957 14.0604 13.0708C14.1751 12.7613 14.2357 12.4343 14.2396 12.1042C14.2646 11.5552 14.2698 11.3906 14.2698 10C14.2698 8.60938 14.2646 8.44479 14.2385 7.89583C14.2351 7.56544 14.1748 7.23809 14.0604 6.92812V6.92812ZM10 12.675C9.47094 12.675 8.95376 12.5181 8.51385 12.2242C8.07395 11.9302 7.73109 11.5125 7.52863 11.0237C7.32616 10.5349 7.27319 9.99703 7.3764 9.47813C7.47962 8.95923 7.73439 8.48259 8.10849 8.10849C8.4826 7.73438 8.95924 7.47961 9.47814 7.3764C9.99704 7.27318 10.5349 7.32616 11.0237 7.52862C11.5125 7.73109 11.9303 8.07395 12.2242 8.51385C12.5181 8.95375 12.675 9.47093 12.675 10C12.675 10.7095 12.3932 11.3899 11.8915 11.8915C11.3899 12.3932 10.7095 12.675 10 12.675ZM12.7802 7.84479C12.6566 7.84479 12.5358 7.80814 12.433 7.73946C12.3302 7.67078 12.2501 7.57317 12.2028 7.45897C12.1555 7.34476 12.1431 7.2191 12.1672 7.09786C12.1913 6.97662 12.2509 6.86526 12.3383 6.77785C12.4257 6.69044 12.537 6.63092 12.6583 6.6068C12.7795 6.58268 12.9052 6.59506 13.0194 6.64237C13.1336 6.68967 13.2312 6.76978 13.2999 6.87256C13.3686 6.97534 13.4052 7.09618 13.4052 7.21979C13.4052 7.38555 13.3394 7.54452 13.2222 7.66173C13.1049 7.77894 12.946 7.84479 12.7802 7.84479V7.84479ZM11.7365 10C11.7365 10.3434 11.6346 10.6792 11.4438 10.9647C11.253 11.2503 10.9818 11.4728 10.6645 11.6043C10.3472 11.7357 9.99808 11.7701 9.66124 11.7031C9.3244 11.6361 9.01499 11.4707 8.77214 11.2279C8.5293 10.985 8.36391 10.6756 8.29691 10.3388C8.22991 10.0019 8.2643 9.65278 8.39573 9.33549C8.52715 9.01819 8.74972 8.74699 9.03528 8.55619C9.32084 8.36538 9.65657 8.26354 10 8.26354C10.4605 8.26354 10.9022 8.44649 11.2279 8.77214C11.5535 9.09779 11.7365 9.53946 11.7365 10V10ZM10 0C8.02219 0 6.08879 0.58649 4.4443 1.6853C2.79981 2.78412 1.51809 4.3459 0.761209 6.17317C0.00433282 8.00043 -0.1937 10.0111 0.192152 11.9509C0.578004 13.8907 1.53041 15.6725 2.92894 17.0711C4.32746 18.4696 6.10929 19.422 8.0491 19.8079C9.98891 20.1937 11.9996 19.9957 13.8268 19.2388C15.6541 18.4819 17.2159 17.2002 18.3147 15.5557C19.4135 13.9112 20 11.9778 20 10C20 7.34784 18.9464 4.8043 17.0711 2.92893C15.1957 1.05357 12.6522 0 10 0V0ZM15.1771 12.1469C15.1683 12.5791 15.0862 13.0067 14.9344 13.4115C14.8006 13.7574 14.596 14.0715 14.3338 14.3338C14.0715 14.596 13.7574 14.8006 13.4115 14.9344C13.007 15.0861 12.5798 15.1681 12.1479 15.1771C11.5917 15.2021 11.4146 15.2083 10 15.2083C8.58542 15.2083 8.40834 15.2021 7.85209 15.1771C7.42022 15.1681 6.99299 15.0861 6.58855 14.9344C6.24263 14.8006 5.92848 14.596 5.66623 14.3338C5.40397 14.0715 5.1994 13.7574 5.06563 13.4115C4.91392 13.007 4.83186 12.5798 4.82292 12.1479C4.79792 11.5917 4.79167 11.4146 4.79167 10C4.79167 8.58542 4.79792 8.40833 4.82292 7.85208C4.83152 7.42028 4.91324 6.99305 5.06459 6.58854C5.19836 6.24233 5.40303 5.92792 5.66548 5.66547C5.92792 5.40303 6.24234 5.19835 6.58855 5.06458C6.99305 4.91323 7.42028 4.83152 7.85209 4.82292C8.40834 4.79792 8.58542 4.79167 10 4.79167C11.4146 4.79167 11.5917 4.79792 12.1479 4.82292C12.5797 4.83152 13.007 4.91323 13.4115 5.06458C13.7575 5.19847 14.0717 5.4032 14.334 5.66564C14.5962 5.92808 14.8007 6.24243 14.9344 6.58854C15.0861 6.99298 15.1682 7.42022 15.1771 7.85208C15.2021 8.40833 15.2083 8.58542 15.2083 10C15.2083 11.4146 15.2021 11.5917 15.1771 12.1479V12.1469Z" fill="#9DAEC2"/>
</g>
<defs>
<clipPath id="clip0_259:1409">
<rect width="20" height="20" fill="white"/>
</clipPath>
</defs>
</svg>
