<svg width="168" height="38" viewBox="0 0 168 38" fill="none" xmlns="http://www.w3.org/2000/svg">
<path d="M16.7529 15.8017C17.1369 16.4245 17.5324 16.9556 17.8098 17.5413C19.0923 20.2093 17.8926 23.8232 15.3163 24.9938C14.7587 25.2475 14.1105 25.354 13.493 25.4113C12.7364 25.4818 11.9675 25.4439 11.2029 25.4227C10.8075 25.4113 10.6498 25.5416 10.6604 25.9512C10.6806 26.7871 10.6991 27.6247 10.6516 28.4606C10.5141 30.9048 8.76664 33.3191 6.04496 33.7375C4.05435 34.0431 1.88846 32.9148 0.857044 31.0458C0.250172 29.9465 -0.00262192 28.7645 2.04875e-05 27.534C0.0105901 21.5446 2.04854e-05 15.5551 0.0881006 9.57096C0.132141 6.5868 2.4416 3.92414 5.7129 4.00165C7.73874 4.0501 9.76458 4.00165 11.7904 4.0131C14.1087 4.02367 16.4287 4.11351 18.7488 4.05362C21.2502 3.98844 23.1616 5.6329 23.9296 7.64112C24.9699 10.3619 24.0124 13.4606 21.6545 14.9958C20.7191 15.6044 19.671 15.7718 18.5876 15.7991C17.993 15.8132 17.3932 15.8017 16.7529 15.8017ZM1.26309 26.9809C1.3362 26.8391 1.37848 26.7677 1.41018 26.6929C2.15798 24.9313 3.53292 24.1447 5.40286 24.1447C8.01532 24.1447 10.6269 24.1702 13.242 24.1447C13.7538 24.1396 14.2597 24.0349 14.7314 23.8364C16.523 23.0622 17.4742 21.0126 17.0374 18.992C16.6049 16.9935 15.0608 15.7436 13.0103 15.7392C10.4419 15.7339 7.8735 15.7489 5.30597 15.7242C3.94689 15.7119 2.7675 15.2574 1.95892 14.0992C1.7123 13.7468 1.53173 13.3452 1.26573 12.866L1.26309 26.9809Z" fill="#F2B10F"/>
<path d="M91.5072 32.738V5.27352C91.7008 5.16652 91.8572 4.9961 92.0173 5.00007C96.1131 5.08726 100.209 4.86532 104.26 5.36864C111.662 6.29205 115.702 11.2301 115.802 18.8433C115.907 25.9531 111.591 31.6759 104.632 32.6429C100.41 33.2176 96.0311 32.738 91.5072 32.738ZM97.4646 27.7088C99.6987 27.5146 101.765 27.5186 103.75 27.1223C107.529 26.3693 109.573 23.603 109.707 19.4576C109.849 15.1378 108.024 12.0822 104.312 11.1152C102.145 10.5524 99.8439 10.5643 97.4609 10.3225L97.4646 27.7088Z" fill="#3F3E3C"/>
<path d="M143.152 8.1469L138.948 12.6459C136.242 10.3501 133.264 9.67126 130.012 10.6093C126.75 11.5536 124.952 13.8975 124.471 17.1486C123.935 20.7812 124.609 24.1434 127.912 26.317C130.853 28.2499 134.029 28.0426 137.135 26.5873C137.327 26.4642 137.49 26.3012 137.613 26.1094C137.736 25.9177 137.815 25.7017 137.846 25.4765C137.939 24.3249 137.879 23.1584 137.879 21.8254H133.326V16.6525H143.297C143.39 17.1033 143.452 17.5597 143.483 18.0188C143.483 21.6625 143.543 25.3061 143.446 28.9461C143.446 29.5867 142.943 30.5605 142.418 30.7975C137.44 32.9452 132.283 33.6969 127.026 31.975C121.284 30.094 117.859 24.6063 118.227 18.1855C118.6 11.5832 122.554 6.76203 128.686 5.4438C132.097 4.69282 135.651 4.89792 138.952 6.03626C140.315 6.49542 141.554 7.32856 143.152 8.1469Z" fill="#3F3E3C"/>
<path d="M64.0098 5H69.662C69.6955 5.76418 69.7551 6.43666 69.7551 7.11678C69.7551 11.9579 69.7253 16.799 69.7886 21.6363C69.8258 24.8077 71.7136 27.0964 74.387 27.4441C77.6487 27.8682 80.2401 25.377 80.2811 21.6554C80.337 16.9404 80.2811 12.2254 80.2811 7.51799V5.08406H85.9891C86.0759 5.49053 86.1331 5.90304 86.1604 6.31821C86.1604 11.6064 86.2274 16.8945 86.1604 22.1789C86.0747 28.0898 82.5524 31.9834 76.7178 32.7934C70.8833 33.6034 65.8715 30.6346 64.4045 25.3884C64.1916 24.7233 64.0664 24.032 64.0322 23.3328C63.9987 17.2881 64.0098 11.251 64.0098 5Z" fill="#3F3E3C"/>
<path d="M166.541 5V10.3442H154.656V15.942H165.8V21.4368H154.63V27.3792H167.178V32.9255H148.814V5H166.541Z" fill="#3F3E3C"/>
<path d="M42.3471 5H59.713V10.3973H48.1221V16.3097H58.8343V21.9368H48.0365V32.9255H42.3471V5Z" fill="#3F3E3C"/>
<path d="M34.0971 0L34.0971 38" stroke="#3F3E3C" stroke-width="1.5"/>
</svg>
