<svg width="80" height="80" viewBox="0 0 80 80" fill="none" xmlns="http://www.w3.org/2000/svg">
<circle cx="40" cy="40" r="40" fill="#FAFAFA"/>
<path d="M56.9688 31.4378H55.625V27.4065C55.625 26.6621 55.023 26.0628 54.2812 26.0628H22.0312C19.8087 26.0628 18 27.8715 18 30.094V54.2815C18 56.5041 19.8087 58.3128 22.0312 58.3128H56.9688C57.7105 58.3128 58.3125 57.7108 58.3125 56.969V32.7815C58.3125 32.0371 57.7105 31.4378 56.9688 31.4378Z" fill="#F2B10F"/>
<path d="M22.0312 28.7503H52.9375V31.4378H22.0312C21.2895 31.4378 20.6875 30.8358 20.6875 30.094C20.6875 29.3523 21.2895 28.7503 22.0312 28.7503Z" fill="#FAFAFA"/>
<path d="M59.6562 47.5627H51.5938C49.3685 47.5627 47.5625 45.7567 47.5625 43.5315C47.5625 41.3036 49.3685 39.5002 51.5938 39.5002H59.6562C60.398 39.5002 61 40.1022 61 40.844V46.219C61 46.9607 60.398 47.5627 59.6562 47.5627Z" fill="#DC9D00"/>
<path d="M52.4242 31.4378L47.4201 21.4295C47.0868 20.7657 46.2806 20.4996 45.6168 20.8275L24.4016 31.4378H52.4242Z" fill="#4CAF50"/>
<path d="M20.6875 31.4378H47.0492L42.0451 21.4295C41.7118 20.7657 40.9056 20.4996 40.2418 20.8302L20.6875 30.6073V31.4378Z" fill="#81C784"/>
</svg>
