<svg width="80" height="80" viewBox="0 0 80 80" fill="none" xmlns="http://www.w3.org/2000/svg">
<circle cx="40" cy="40" r="40" fill="#FAFAFA"/>
<g clip-path="url(#clip0)">
<path d="M39.6264 26.9069L33.4016 29.9389C32.8423 30.2195 32.398 30.6873 32.1453 31.2608L24.3797 50.7281C23.577 52.5462 24.3958 54.6714 26.2087 55.4745L33.9327 58.8972H39.669L39.6264 26.9069Z" fill="#FAD207"/>
<path d="M56.9286 53.4143V57.1646C56.9286 59.2524 55.1819 61 53.0932 61H37.3251C35.2364 61 33.5748 59.2524 33.5748 57.1646V35.0892C33.5748 34.4307 33.7615 33.8064 34.1807 33.2985L38.9217 27.5543C39.4604 26.9014 40.2286 26.4807 41.0753 26.4807H49.3429C50.1896 26.4807 50.9578 26.9014 51.4967 27.5543L56.2376 33.2985C56.6568 33.8064 56.9287 34.4308 56.9287 35.0892V50.4312V53.4143H56.9286Z" fill="#F2B10F"/>
<path fill-rule="evenodd" clip-rule="evenodd" d="M43.9247 41.4402L43.9248 41.4392L43.9028 41.4173C43.8912 41.4054 43.8795 41.3936 43.8676 41.3821L42.9858 40.4997L42.8607 40.7489C42.5689 40.6442 42.2549 40.5867 41.9276 40.5867H41.8424C40.315 40.5867 39.0723 41.8294 39.0723 43.3568C39.0723 43.6732 39.1264 43.977 39.2245 44.2605L38.9655 44.3933L39.8787 45.3085C39.8826 45.3123 39.8864 45.3162 39.8902 45.3201L39.9025 45.3324L39.9029 45.3321C40.4029 45.8232 41.0878 46.1269 41.8424 46.1269H41.9276C43.4551 46.1269 44.6977 44.8842 44.6977 43.3568C44.6977 42.6135 44.4029 41.9382 43.9247 41.4402ZM41.9276 44.8484H41.8424C41.02 44.8484 40.3508 44.1792 40.3508 43.3568C40.3508 42.5344 41.02 41.8652 41.8424 41.8652H41.9276C42.7501 41.8652 43.4192 42.5344 43.4192 43.3568C43.4192 44.1792 42.7501 44.8484 41.9276 44.8484Z" fill="#EDAA03"/>
<path fill-rule="evenodd" clip-rule="evenodd" d="M51.6663 40.8523L50.814 40L39 51.8138L39.8523 52.6661C39.9772 52.7909 40.1408 52.8534 40.3044 52.8534C40.468 52.8534 40.6316 52.791 40.7565 52.6661L51.6663 41.7563C51.9159 41.5067 51.9159 41.1019 51.6663 40.8523Z" fill="#EDAA03"/>
<path fill-rule="evenodd" clip-rule="evenodd" d="M52.0935 47.9985L52.0942 47.9982L51.3891 47.2832L51.4348 47.5731C51.0831 47.4112 50.6923 47.3201 50.2805 47.3201H50.1952C48.6678 47.3201 47.4252 48.5628 47.4252 50.0902C47.4252 50.4849 47.5087 50.8604 47.6582 51.2005L47.3452 51.1549L48.1935 52.002C48.2237 52.0337 48.2547 52.0646 48.2865 52.0949L48.306 52.1143L48.3061 52.1136C48.8013 52.5762 49.4656 52.8603 50.1952 52.8603H50.2805C51.8079 52.8603 53.0505 51.6176 53.0505 50.0902C53.0505 49.2557 52.6791 48.5068 52.0935 47.9985ZM50.2805 51.5818H50.1952C49.3728 51.5818 48.7037 50.9126 48.7037 50.0902C48.7037 49.2678 49.3728 48.5986 50.1952 48.5986H50.2805C51.1029 48.5986 51.772 49.2678 51.772 50.0902C51.772 50.9126 51.1029 51.5818 50.2805 51.5818Z" fill="#EDAA03"/>
<path d="M39.7116 52.008C39.548 52.008 39.3844 51.9456 39.2595 51.8207C39.0099 51.5711 39.0099 51.1663 39.2595 50.9167L50.1693 40.0069C50.4191 39.7573 50.8237 39.7573 51.0734 40.0069C51.323 40.2566 51.323 40.6613 51.0734 40.9109L40.1636 51.8207C40.0388 51.9456 39.8752 52.008 39.7116 52.008Z" fill="#F5F5F5"/>
<path d="M41.0753 45.2745H40.9901C39.4626 45.2745 38.22 44.0318 38.22 42.5045C38.22 40.9771 39.4626 39.7344 40.9901 39.7344H41.0753C42.6028 39.7344 43.8454 40.9771 43.8454 42.5045C43.8454 44.0318 42.6028 45.2745 41.0753 45.2745ZM40.9901 41.0129C40.1677 41.0129 39.4985 41.6821 39.4985 42.5045C39.4985 43.3269 40.1677 43.9961 40.9901 43.9961H41.0753C41.8977 43.9961 42.5669 43.3269 42.5669 42.5045C42.5669 41.6821 41.8977 41.0129 41.0753 41.0129H40.9901Z" fill="#F5F5F5"/>
<path d="M49.4281 52.0079H49.3429C47.8155 52.0079 46.5728 50.7652 46.5728 49.2379C46.5728 47.7105 47.8155 46.4678 49.3429 46.4678H49.4281C50.9556 46.4678 52.1982 47.7105 52.1982 49.2379C52.1982 50.7652 50.9556 52.0079 49.4281 52.0079ZM49.3429 47.7463C48.5205 47.7463 47.8513 48.4155 47.8513 49.2379C47.8513 50.0603 48.5205 50.7295 49.3429 50.7295H49.4281C50.2506 50.7295 50.9197 50.0603 50.9197 49.2379C50.9197 48.4155 50.2506 47.7463 49.4281 47.7463H49.3429Z" fill="#F5F5F5"/>
<path d="M46.5984 31.6793C46.321 31.6793 46.0656 31.4973 45.9847 31.2175C45.8866 30.8784 46.082 30.5239 46.4211 30.4258C46.4937 30.4048 46.5666 30.3818 46.6381 30.3574C48.5873 29.692 49.8969 27.86 49.8969 25.7987V18.6392C49.8969 18.2862 50.1831 17.9999 50.5362 17.9999C50.8892 17.9999 51.1754 18.2862 51.1754 18.6392V25.7987C51.1754 28.407 49.518 30.7252 47.051 31.5673C46.9606 31.5982 46.8682 31.6273 46.7763 31.6539C46.7171 31.6711 46.6572 31.6793 46.5984 31.6793Z" fill="#E0A446"/>
<path d="M45.2517 33.2567C44.1473 33.2567 43.2487 32.3582 43.2487 31.2537C43.2487 30.1493 44.1473 29.2508 45.2517 29.2508C46.3562 29.2508 47.2547 30.1493 47.2547 31.2537C47.2547 32.3582 46.3562 33.2567 45.2517 33.2567Z" fill="#F5F5F5"/>
</g>
<defs>
<clipPath id="clip0">
<rect width="43" height="43" fill="white" transform="translate(19 18)"/>
</clipPath>
</defs>
</svg>
