<svg width="40" height="40" viewBox="0 0 40 40" fill="none" xmlns="http://www.w3.org/2000/svg">
<path fill-rule="evenodd" clip-rule="evenodd" d="M0 20C0 8.95433 8.95433 0 20 0C31.0457 0 40 8.95433 40 20C40 31.0457 31.0457 40 20 40C8.95433 40 0 31.0457 0 20ZM28.2458 8.66667H12.4209C11.0865 8.66667 10 9.74 10 11.07V26.8433C10 28.1733 11.0865 29.2467 12.4209 29.2467H25.8129L25.1871 27.0883L26.6987 28.4767L28.1276 29.7833L30.6667 32V11.07C30.6667 9.74 29.5802 8.66667 28.2458 8.66667Z" fill="#CBC9D2"/>
<path fill-rule="evenodd" clip-rule="evenodd" d="M23.6873 23.9032C23.6873 23.9032 23.2621 23.4016 22.9079 22.9582C24.4549 22.5266 25.0454 21.5699 25.0454 21.5699C24.5612 21.8849 24.1006 22.1066 23.6873 22.2582C23.0968 22.5032 22.5299 22.6666 21.9749 22.7599C20.8412 22.9699 19.8019 22.9116 18.9162 22.7482C18.2431 22.6199 17.6644 22.4332 17.1802 22.2466C16.9086 22.1416 16.6133 22.0132 16.3181 21.8499C16.2827 21.8266 16.2473 21.8149 16.2118 21.7916C16.1882 21.7799 16.1764 21.7682 16.1646 21.7566C15.952 21.6399 15.8339 21.5582 15.8339 21.5582C15.8339 21.5582 16.4008 22.4916 17.9006 22.9349C17.5463 23.3782 17.1093 23.9032 17.1093 23.9032C14.4994 23.8216 13.5074 22.1299 13.5074 22.1299C13.5074 18.3732 15.208 15.3282 15.208 15.3282C16.9086 14.0682 18.5265 14.1032 18.5265 14.1032L18.6446 14.2432C16.5188 14.8499 15.5387 15.7716 15.5387 15.7716C15.5387 15.7716 15.7985 15.6316 16.2354 15.4332C17.4991 14.8849 18.5029 14.7332 18.9162 14.6982C18.9871 14.6866 19.0461 14.6749 19.1169 14.6749C19.8374 14.5816 20.6522 14.5582 21.5025 14.6516C22.6244 14.7799 23.8289 15.1066 25.0572 15.7716C25.0572 15.7716 24.1242 14.8966 22.1166 14.2899L22.2819 14.1032C22.2819 14.1032 23.8999 14.0682 25.6004 15.3282C25.6004 15.3282 27.3009 18.3732 27.3009 22.1299C27.3009 22.1299 26.2972 23.8216 23.6873 23.9032ZM18.5284 18.6666C17.8606 18.6666 17.3333 19.2672 17.3333 19.9999C17.3333 20.7327 17.8723 21.3332 18.5284 21.3332C19.1963 21.3332 19.7235 20.7327 19.7235 19.9999C19.7352 19.2672 19.1963 18.6666 18.5284 18.6666ZM22.8049 18.6666C22.1371 18.6666 21.6099 19.2672 21.6099 19.9999C21.6099 20.7327 22.1489 21.3332 22.8049 21.3332C23.4728 21.3332 24 20.7327 24 19.9999C24 19.2672 23.4728 18.6666 22.8049 18.6666Z" fill="#CBC9D2"/>
</svg>
